<svg width="1920" height="1106" viewBox="0 0 1920 1106" fill="none" xmlns="http://www.w3.org/2000/svg">
<g opacity="0.4">
<mask id="mask0_67_1336" style="mask-type:luminance" maskUnits="userSpaceOnUse" x="-423" y="-498" width="2807" height="1604">
<path d="M2383.24 -498H-423V1105.57H2383.24V-498Z" fill="white"/>
</mask>
<g mask="url(#mask0_67_1336)">
<g style="mix-blend-mode:screen">
<path d="M1515.58 26.0698L444.54 26.0098L-659.54 -532.7H2619.79L2616.61 -531.09L1515.59 26.0698H1515.58ZM444.9 24.3998H1515.33L2612.94 -531.03H-652.7L444.9 24.3998Z" fill="url(#paint0_linear_67_1336)"/>
<path d="M1550.34 6.75H409.9V8.42001H1550.34V6.75Z" fill="url(#paint1_linear_67_1336)"/>
<path d="M1448.81 25.9901L1448.28 24.4701L2411.57 -532.63L2412.1 -531.11L1448.81 25.9901Z" fill="url(#paint2_linear_67_1336)"/>
<path d="M1381.93 25.9696L1381.32 24.4896L2207 -532.61L2207.61 -531.13L1381.93 25.9696Z" fill="url(#paint3_linear_67_1336)"/>
<path d="M1315.06 25.9399L1314.36 24.53L2002.43 -532.58L2003.12 -531.16L1315.06 25.9399Z" fill="url(#paint4_linear_67_1336)"/>
<path d="M1248.19 25.8895L1247.39 24.5795L1797.84 -532.521L1798.64 -531.211L1248.19 25.8895Z" fill="url(#paint5_linear_67_1336)"/>
<path d="M1181.34 25.8098L1180.4 24.6598L1593.24 -532.45L1594.18 -531.29L1181.34 25.8098Z" fill="url(#paint6_linear_67_1336)"/>
<path d="M1114.5 25.6797L1113.41 24.7797L1388.63 -532.32L1389.73 -531.42L1114.5 25.6797Z" fill="url(#paint7_linear_67_1336)"/>
<path d="M1047.66 25.4799L1046.42 24.9799L1184.03 -532.12L1185.27 -531.62L1047.66 25.4799Z" fill="url(#paint8_linear_67_1336)"/>
<path d="M980.77 -531.87H979.47V25.2299H980.77V-531.87Z" fill="url(#paint9_linear_67_1336)"/>
<path d="M912.58 25.4799L774.97 -531.62L776.21 -532.12L913.82 24.9799L912.58 25.4799Z" fill="url(#paint10_linear_67_1336)"/>
<path d="M845.74 25.6797L570.51 -531.42L571.61 -532.32L846.83 24.7797L845.74 25.6797Z" fill="url(#paint11_linear_67_1336)"/>
<path d="M778.9 25.8098L366.06 -531.29L367 -532.45L779.84 24.6598L778.9 25.8098Z" fill="url(#paint12_linear_67_1336)"/>
<path d="M712.05 25.8895L161.6 -531.211L162.4 -532.521L712.85 24.5795L712.05 25.8895Z" fill="url(#paint13_linear_67_1336)"/>
<path d="M645.19 25.9399L-42.8801 -531.16L-42.1801 -532.58L645.88 24.53L645.19 25.9399Z" fill="url(#paint14_linear_67_1336)"/>
<path d="M578.31 25.9696L-247.36 -531.13L-246.76 -532.61L578.92 24.4896L578.31 25.9696Z" fill="url(#paint15_linear_67_1336)"/>
<path d="M511.43 25.9901L-451.86 -531.11L-451.32 -532.63L511.97 24.4701L511.43 25.9901Z" fill="url(#paint16_linear_67_1336)"/>
</g>
<g style="mix-blend-mode:screen">
<path d="M2586.79 1125.83L2585.9 1125.38L1514.81 582.9V24.6602L1515.22 24.4503L2586.79 -518.26V1125.83ZM1516.11 581.77L2585.49 1123.38V-515.81L1516.11 25.8002V581.77Z" fill="url(#paint17_linear_67_1336)"/>
<path d="M2585.94 976.16L1515.26 532.48L1515.66 530.9L2586.34 974.57L2585.94 976.16Z" fill="url(#paint18_linear_67_1336)"/>
<path d="M2585.98 826.931L1515.3 481.85L1515.62 480.23L2586.3 825.311L2585.98 826.931Z" fill="url(#paint19_linear_67_1336)"/>
<path d="M2586.03 677.7L1515.35 431.22L1515.58 429.58L2586.26 676.06L2586.03 677.7Z" fill="url(#paint20_linear_67_1336)"/>
<path d="M2586.07 528.47L1515.39 380.58L1515.53 378.92L2586.21 526.81L2586.07 528.47Z" fill="url(#paint21_linear_67_1336)"/>
<path d="M2586.12 379.24L1515.44 329.94L1515.48 328.271L2586.17 377.57L2586.12 379.24Z" fill="url(#paint22_linear_67_1336)"/>
<path d="M1515.48 279.3L1515.44 277.63L2586.12 228.33L2586.17 230L1515.48 279.3Z" fill="url(#paint23_linear_67_1336)"/>
<path d="M1515.53 228.641L1515.39 226.991L2586.07 79.1006L2586.21 80.7506L1515.53 228.641Z" fill="url(#paint24_linear_67_1336)"/>
<path d="M1515.58 177.99L1515.35 176.35L2586.03 -70.1396L2586.26 -68.4896L1515.58 177.99Z" fill="url(#paint25_linear_67_1336)"/>
<path d="M1515.62 127.33L1515.3 125.71L2585.98 -219.37L2586.3 -217.75L1515.62 127.33Z" fill="url(#paint26_linear_67_1336)"/>
<path d="M1515.66 76.6701L1515.26 75.0802L2585.94 -368.59L2586.34 -367L1515.66 76.6701Z" fill="url(#paint27_linear_67_1336)"/>
<path d="M1902.91 -170.67H1901.61V778.24H1902.91V-170.67Z" fill="url(#paint28_linear_67_1336)"/>
<path d="M1841.36 -139.5H1840.06V747.06H1841.36V-139.5Z" fill="url(#paint29_linear_67_1336)"/>
<path d="M1787.4 -112.16H1786.1V719.73H1787.4V-112.16Z" fill="url(#paint30_linear_67_1336)"/>
<path d="M1739.7 -88.0098H1738.4V695.57H1739.7V-88.0098Z" fill="url(#paint31_linear_67_1336)"/>
<path d="M1697.24 -66.5H1695.94V674.07H1697.24V-66.5Z" fill="url(#paint32_linear_67_1336)"/>
<path d="M1659.2 -47.2402H1657.9V654.8H1659.2V-47.2402Z" fill="url(#paint33_linear_67_1336)"/>
<path d="M1624.92 -29.8701H1623.62V637.45H1624.92V-29.8701Z" fill="url(#paint34_linear_67_1336)"/>
<path d="M1593.87 -14.1494H1592.57V621.721H1593.87V-14.1494Z" fill="url(#paint35_linear_67_1336)"/>
<path d="M1565.62 0.160156H1564.32V607.41H1565.62V0.160156Z" fill="url(#paint36_linear_67_1336)"/>
<path d="M1539.8 13.2402H1538.5V594.33H1539.8V13.2402Z" fill="url(#paint37_linear_67_1336)"/>
</g>
<g style="mix-blend-mode:screen">
<path d="M2619.79 1140.27H-659.54L-656.36 1138.66L444.66 581.5L1515.7 581.56L2619.79 1140.27ZM-652.69 1138.6H2612.95L1515.35 583.17H444.9L-652.7 1138.6H-652.69Z" fill="url(#paint38_linear_67_1336)"/>
<path d="M1550.34 599.15H409.9V600.82H1550.34V599.15Z" fill="url(#paint39_linear_67_1336)"/>
<path d="M1590.08 619.26H370.16V620.93H1590.08V619.26Z" fill="url(#paint40_linear_67_1336)"/>
<path d="M1635.77 642.38H324.47V644.05H1635.77V642.38Z" fill="url(#paint41_linear_67_1336)"/>
<path d="M1688.87 669.25H271.38V670.92H1688.87V669.25Z" fill="url(#paint42_linear_67_1336)"/>
<path d="M1751.32 700.85H208.93V702.52H1751.32V700.85Z" fill="url(#paint43_linear_67_1336)"/>
<path d="M1825.83 738.561H134.41V740.23H1825.83V738.561Z" fill="url(#paint44_linear_67_1336)"/>
<path d="M1916.29 784.34H43.95V786.01H1916.29V784.34Z" fill="url(#paint45_linear_67_1336)"/>
<path d="M2028.42 841.08H-68.1802V842.75H2028.42V841.08Z" fill="url(#paint46_linear_67_1336)"/>
<path d="M2171.07 913.26H-210.82V914.93H2171.07V913.26Z" fill="url(#paint47_linear_67_1336)"/>
<path d="M2358.65 1008.19H-398.4V1009.86H2358.65V1008.19Z" fill="url(#paint48_linear_67_1336)"/>
<path d="M-451.32 1140.2L-451.86 1138.67L511.43 581.57L511.97 583.09L-451.32 1140.2Z" fill="url(#paint49_linear_67_1336)"/>
<path d="M-246.76 1140.17L-247.36 1138.7L578.31 581.59L578.92 583.07L-246.76 1140.17Z" fill="url(#paint50_linear_67_1336)"/>
<path d="M-42.1801 1140.14L-42.8801 1138.73L645.19 581.63L645.88 583.04L-42.1801 1140.14Z" fill="url(#paint51_linear_67_1336)"/>
<path d="M162.4 1140.09L161.6 1138.78L712.05 581.68L712.85 582.99L162.4 1140.09Z" fill="url(#paint52_linear_67_1336)"/>
<path d="M367 1140.01L366.06 1138.86L778.9 581.76L779.84 582.91L367 1140.01Z" fill="url(#paint53_linear_67_1336)"/>
<path d="M571.61 1139.88L570.51 1138.99L845.74 581.88L846.83 582.78L571.61 1139.88Z" fill="url(#paint54_linear_67_1336)"/>
<path d="M776.21 1139.69L774.97 1139.18L912.58 582.08L913.82 582.59L776.21 1139.69Z" fill="url(#paint55_linear_67_1336)"/>
<path d="M980.77 582.33H979.47V1139.43H980.77V582.33Z" fill="url(#paint56_linear_67_1336)"/>
<path d="M1184.03 1139.69L1046.42 582.59L1047.66 582.08L1185.27 1139.18L1184.03 1139.69Z" fill="url(#paint57_linear_67_1336)"/>
<path d="M1388.63 1139.88L1113.41 582.78L1114.5 581.88L1389.73 1138.99L1388.63 1139.88Z" fill="url(#paint58_linear_67_1336)"/>
<path d="M1593.24 1140.01L1180.4 582.91L1181.34 581.76L1594.18 1138.86L1593.24 1140.01Z" fill="url(#paint59_linear_67_1336)"/>
<path d="M1797.84 1140.09L1247.39 582.99L1248.19 581.68L1798.64 1138.78L1797.84 1140.09Z" fill="url(#paint60_linear_67_1336)"/>
<path d="M2002.43 1140.14L1314.36 583.04L1315.06 581.63L2003.12 1138.73L2002.43 1140.14Z" fill="url(#paint61_linear_67_1336)"/>
<path d="M2207 1140.17L1381.32 583.07L1381.93 581.59L2207.61 1138.7L2207 1140.17Z" fill="url(#paint62_linear_67_1336)"/>
<path d="M2411.57 1140.2L1448.28 583.09L1448.81 581.57L2412.1 1138.67L2411.57 1140.2Z" fill="url(#paint63_linear_67_1336)"/>
</g>
<g style="mix-blend-mode:screen">
<path d="M-626.55 1125.83V-518.26L-625.66 -517.81L445.43 24.6602V582.9L445.02 583.11L-626.55 1125.83ZM-625.25 -515.8V1123.38L444.13 581.77V25.8002L-625.25 -515.81V-515.8Z" fill="url(#paint64_linear_67_1336)"/>
<path d="M444.58 76.6701L-626.1 -367L-625.7 -368.59L444.98 75.0802L444.58 76.6701Z" fill="url(#paint65_linear_67_1336)"/>
<path d="M444.62 127.33L-626.06 -217.75L-625.74 -219.37L444.94 125.71L444.62 127.33Z" fill="url(#paint66_linear_67_1336)"/>
<path d="M444.67 177.99L-626.01 -68.4896L-625.78 -70.1396L444.9 176.35L444.67 177.99Z" fill="url(#paint67_linear_67_1336)"/>
<path d="M444.71 228.641L-625.97 80.7506L-625.83 79.1006L444.85 226.991L444.71 228.641Z" fill="url(#paint68_linear_67_1336)"/>
<path d="M444.76 279.3L-625.92 230L-625.88 228.33L444.81 277.63L444.76 279.3Z" fill="url(#paint69_linear_67_1336)"/>
<path d="M-625.88 379.24L-625.92 377.57L444.76 328.271L444.81 329.94L-625.88 379.24Z" fill="url(#paint70_linear_67_1336)"/>
<path d="M-625.83 528.47L-625.97 526.81L444.71 378.92L444.85 380.58L-625.83 528.47Z" fill="url(#paint71_linear_67_1336)"/>
<path d="M-625.78 677.7L-626.01 676.06L444.67 429.58L444.9 431.22L-625.78 677.7Z" fill="url(#paint72_linear_67_1336)"/>
<path d="M-625.74 826.931L-626.06 825.311L444.62 480.23L444.94 481.85L-625.74 826.931Z" fill="url(#paint73_linear_67_1336)"/>
<path d="M-625.7 976.16L-626.1 974.57L444.58 530.9L444.98 532.48L-625.7 976.16Z" fill="url(#paint74_linear_67_1336)"/>
<path d="M58.6301 -170.67H57.3301V778.24H58.6301V-170.67Z" fill="url(#paint75_linear_67_1336)"/>
<path d="M120.19 -139.5H118.89V747.06H120.19V-139.5Z" fill="url(#paint76_linear_67_1336)"/>
<path d="M174.15 -112.16H172.85V719.73H174.15V-112.16Z" fill="url(#paint77_linear_67_1336)"/>
<path d="M221.85 -88.0098H220.55V695.57H221.85V-88.0098Z" fill="url(#paint78_linear_67_1336)"/>
<path d="M264.31 -66.5H263.01V674.07H264.31V-66.5Z" fill="url(#paint79_linear_67_1336)"/>
<path d="M302.35 -47.2402H301.05V654.8H302.35V-47.2402Z" fill="url(#paint80_linear_67_1336)"/>
<path d="M336.63 -29.8701H335.33V637.45H336.63V-29.8701Z" fill="url(#paint81_linear_67_1336)"/>
<path d="M367.67 -14.1494H366.37V621.721H367.67V-14.1494Z" fill="url(#paint82_linear_67_1336)"/>
<path d="M395.93 0.160156H394.63V607.41H395.93V0.160156Z" fill="url(#paint83_linear_67_1336)"/>
<path d="M421.75 13.2402H420.45V594.33H421.75V13.2402Z" fill="url(#paint84_linear_67_1336)"/>
</g>
</g>
</g>
<defs>
<linearGradient id="paint0_linear_67_1336" x1="980.12" y1="-530.79" x2="980.12" y2="27.9798" gradientUnits="userSpaceOnUse">
<stop offset="0.34" stop-color="#787878"/>
<stop offset="1"/>
</linearGradient>
<linearGradient id="paint1_linear_67_1336" x1="980.12" y1="-530.764" x2="980.12" y2="27.8002" gradientUnits="userSpaceOnUse">
<stop offset="0.34" stop-color="#787878"/>
<stop offset="1"/>
</linearGradient>
<linearGradient id="paint2_linear_67_1336" x1="1930.19" y1="-530.79" x2="1930.19" y2="27.8301" gradientUnits="userSpaceOnUse">
<stop offset="0.34" stop-color="#787878"/>
<stop offset="1"/>
</linearGradient>
<linearGradient id="paint3_linear_67_1336" x1="1794.46" y1="-530.79" x2="1794.46" y2="27.7896" gradientUnits="userSpaceOnUse">
<stop offset="0.34" stop-color="#787878"/>
<stop offset="1"/>
</linearGradient>
<linearGradient id="paint4_linear_67_1336" x1="1658.74" y1="-530.79" x2="1658.74" y2="27.7299" gradientUnits="userSpaceOnUse">
<stop offset="0.34" stop-color="#787878"/>
<stop offset="1"/>
</linearGradient>
<linearGradient id="paint5_linear_67_1336" x1="1523.02" y1="-530.791" x2="1523.02" y2="27.6195" gradientUnits="userSpaceOnUse">
<stop offset="0.34" stop-color="#787878"/>
<stop offset="1"/>
</linearGradient>
<linearGradient id="paint6_linear_67_1336" x1="1387.29" y1="-530.79" x2="1387.29" y2="27.4598" gradientUnits="userSpaceOnUse">
<stop offset="0.34" stop-color="#787878"/>
<stop offset="1"/>
</linearGradient>
<linearGradient id="paint7_linear_67_1336" x1="1251.57" y1="-530.79" x2="1251.57" y2="27.8097" gradientUnits="userSpaceOnUse">
<stop offset="0.34" stop-color="#787878"/>
<stop offset="1"/>
</linearGradient>
<linearGradient id="paint8_linear_67_1336" x1="1115.85" y1="-530.79" x2="1115.85" y2="27.7999" gradientUnits="userSpaceOnUse">
<stop offset="0.34" stop-color="#787878"/>
<stop offset="1"/>
</linearGradient>
<linearGradient id="paint9_linear_67_1336" x1="980.12" y1="-530.79" x2="980.12" y2="27.8099" gradientUnits="userSpaceOnUse">
<stop offset="0.34" stop-color="#787878"/>
<stop offset="1"/>
</linearGradient>
<linearGradient id="paint10_linear_67_1336" x1="844.4" y1="-530.79" x2="844.4" y2="27.7999" gradientUnits="userSpaceOnUse">
<stop offset="0.34" stop-color="#787878"/>
<stop offset="1"/>
</linearGradient>
<linearGradient id="paint11_linear_67_1336" x1="708.67" y1="-530.79" x2="708.67" y2="27.8097" gradientUnits="userSpaceOnUse">
<stop offset="0.34" stop-color="#787878"/>
<stop offset="1"/>
</linearGradient>
<linearGradient id="paint12_linear_67_1336" x1="572.95" y1="-530.79" x2="572.95" y2="27.4598" gradientUnits="userSpaceOnUse">
<stop offset="0.34" stop-color="#787878"/>
<stop offset="1"/>
</linearGradient>
<linearGradient id="paint13_linear_67_1336" x1="437.23" y1="-530.791" x2="437.23" y2="27.6195" gradientUnits="userSpaceOnUse">
<stop offset="0.34" stop-color="#787878"/>
<stop offset="1"/>
</linearGradient>
<linearGradient id="paint14_linear_67_1336" x1="301.5" y1="-530.79" x2="301.5" y2="27.7299" gradientUnits="userSpaceOnUse">
<stop offset="0.34" stop-color="#787878"/>
<stop offset="1"/>
</linearGradient>
<linearGradient id="paint15_linear_67_1336" x1="165.78" y1="-530.79" x2="165.78" y2="27.7896" gradientUnits="userSpaceOnUse">
<stop offset="0.34" stop-color="#787878"/>
<stop offset="1"/>
</linearGradient>
<linearGradient id="paint16_linear_67_1336" x1="30.0599" y1="-530.79" x2="30.0599" y2="27.8301" gradientUnits="userSpaceOnUse">
<stop offset="0.34" stop-color="#787878"/>
<stop offset="1"/>
</linearGradient>
<linearGradient id="paint17_linear_67_1336" x1="2399.33" y1="303.78" x2="1530.14" y2="303.78" gradientUnits="userSpaceOnUse">
<stop offset="0.34" stop-color="#787878"/>
<stop offset="1"/>
</linearGradient>
<linearGradient id="paint18_linear_67_1336" x1="2399.33" y1="753.53" x2="1530.14" y2="753.53" gradientUnits="userSpaceOnUse">
<stop offset="0.34" stop-color="#787878"/>
<stop offset="1"/>
</linearGradient>
<linearGradient id="paint19_linear_67_1336" x1="2399.33" y1="653.581" x2="1530.14" y2="653.581" gradientUnits="userSpaceOnUse">
<stop offset="0.34" stop-color="#787878"/>
<stop offset="1"/>
</linearGradient>
<linearGradient id="paint20_linear_67_1336" x1="2399.33" y1="553.64" x2="1530.14" y2="553.64" gradientUnits="userSpaceOnUse">
<stop offset="0.34" stop-color="#787878"/>
<stop offset="1"/>
</linearGradient>
<linearGradient id="paint21_linear_67_1336" x1="2399.33" y1="453.7" x2="1530.14" y2="453.7" gradientUnits="userSpaceOnUse">
<stop offset="0.34" stop-color="#787878"/>
<stop offset="1"/>
</linearGradient>
<linearGradient id="paint22_linear_67_1336" x1="2399.33" y1="353.75" x2="1530.14" y2="353.75" gradientUnits="userSpaceOnUse">
<stop offset="0.34" stop-color="#787878"/>
<stop offset="1"/>
</linearGradient>
<linearGradient id="paint23_linear_67_1336" x1="2399.33" y1="253.81" x2="1530.14" y2="253.81" gradientUnits="userSpaceOnUse">
<stop offset="0.34" stop-color="#787878"/>
<stop offset="1"/>
</linearGradient>
<linearGradient id="paint24_linear_67_1336" x1="2399.33" y1="153.871" x2="1530.14" y2="153.871" gradientUnits="userSpaceOnUse">
<stop offset="0.34" stop-color="#787878"/>
<stop offset="1"/>
</linearGradient>
<linearGradient id="paint25_linear_67_1336" x1="2399.33" y1="53.9304" x2="1530.14" y2="53.9304" gradientUnits="userSpaceOnUse">
<stop offset="0.34" stop-color="#787878"/>
<stop offset="1"/>
</linearGradient>
<linearGradient id="paint26_linear_67_1336" x1="2399.33" y1="-46.0201" x2="1530.14" y2="-46.0201" gradientUnits="userSpaceOnUse">
<stop offset="0.34" stop-color="#787878"/>
<stop offset="1"/>
</linearGradient>
<linearGradient id="paint27_linear_67_1336" x1="2399.33" y1="-145.96" x2="1530.14" y2="-145.96" gradientUnits="userSpaceOnUse">
<stop offset="0.34" stop-color="#787878"/>
<stop offset="1"/>
</linearGradient>
<linearGradient id="paint28_linear_67_1336" x1="2399.28" y1="303.78" x2="1530.19" y2="303.78" gradientUnits="userSpaceOnUse">
<stop offset="0.34" stop-color="#787878"/>
<stop offset="1"/>
</linearGradient>
<linearGradient id="paint29_linear_67_1336" x1="2399.42" y1="303.78" x2="1530.1" y2="303.78" gradientUnits="userSpaceOnUse">
<stop offset="0.34" stop-color="#787878"/>
<stop offset="1"/>
</linearGradient>
<linearGradient id="paint30_linear_67_1336" x1="2399.31" y1="303.78" x2="1530.15" y2="303.78" gradientUnits="userSpaceOnUse">
<stop offset="0.34" stop-color="#787878"/>
<stop offset="1"/>
</linearGradient>
<linearGradient id="paint31_linear_67_1336" x1="2399.43" y1="303.78" x2="1530.11" y2="303.78" gradientUnits="userSpaceOnUse">
<stop offset="0.34" stop-color="#787878"/>
<stop offset="1"/>
</linearGradient>
<linearGradient id="paint32_linear_67_1336" x1="2399.44" y1="303.78" x2="1530.11" y2="303.78" gradientUnits="userSpaceOnUse">
<stop offset="0.34" stop-color="#787878"/>
<stop offset="1"/>
</linearGradient>
<linearGradient id="paint33_linear_67_1336" x1="2399.39" y1="303.78" x2="1530.14" y2="303.78" gradientUnits="userSpaceOnUse">
<stop offset="0.34" stop-color="#787878"/>
<stop offset="1"/>
</linearGradient>
<linearGradient id="paint34_linear_67_1336" x1="2399.39" y1="303.78" x2="1530.14" y2="303.78" gradientUnits="userSpaceOnUse">
<stop offset="0.34" stop-color="#787878"/>
<stop offset="1"/>
</linearGradient>
<linearGradient id="paint35_linear_67_1336" x1="2399.08" y1="303.781" x2="1530.17" y2="303.781" gradientUnits="userSpaceOnUse">
<stop offset="0.34" stop-color="#787878"/>
<stop offset="1"/>
</linearGradient>
<linearGradient id="paint36_linear_67_1336" x1="2399.46" y1="303.78" x2="1530.14" y2="303.78" gradientUnits="userSpaceOnUse">
<stop offset="0.34" stop-color="#787878"/>
<stop offset="1"/>
</linearGradient>
<linearGradient id="paint37_linear_67_1336" x1="2399.46" y1="303.78" x2="1530.14" y2="303.78" gradientUnits="userSpaceOnUse">
<stop offset="0.34" stop-color="#787878"/>
<stop offset="1"/>
</linearGradient>
<linearGradient id="paint38_linear_67_1336" x1="-423" y1="1102.47" x2="-422" y2="584.28" gradientUnits="userSpaceOnUse">
<stop offset="0.34" stop-color="#787878"/>
<stop offset="1"/>
</linearGradient>
<linearGradient id="paint39_linear_67_1336" x1="980.12" y1="1102.46" x2="980.12" y2="584.281" gradientUnits="userSpaceOnUse">
<stop offset="0.34" stop-color="#787878"/>
<stop offset="1"/>
</linearGradient>
<linearGradient id="paint40_linear_67_1336" x1="980.12" y1="1102.49" x2="980.12" y2="584.279" gradientUnits="userSpaceOnUse">
<stop offset="0.34" stop-color="#787878"/>
<stop offset="1"/>
</linearGradient>
<linearGradient id="paint41_linear_67_1336" x1="980.12" y1="1102.49" x2="980.12" y2="584.278" gradientUnits="userSpaceOnUse">
<stop offset="0.34" stop-color="#787878"/>
<stop offset="1"/>
</linearGradient>
<linearGradient id="paint42_linear_67_1336" x1="980.12" y1="1102.49" x2="980.12" y2="584.278" gradientUnits="userSpaceOnUse">
<stop offset="0.34" stop-color="#787878"/>
<stop offset="1"/>
</linearGradient>
<linearGradient id="paint43_linear_67_1336" x1="980.12" y1="1102.46" x2="980.12" y2="584.287" gradientUnits="userSpaceOnUse">
<stop offset="0.34" stop-color="#787878"/>
<stop offset="1"/>
</linearGradient>
<linearGradient id="paint44_linear_67_1336" x1="980.12" y1="1102.45" x2="980.12" y2="584.288" gradientUnits="userSpaceOnUse">
<stop offset="0.34" stop-color="#787878"/>
<stop offset="1"/>
</linearGradient>
<linearGradient id="paint45_linear_67_1336" x1="980.12" y1="1102.47" x2="980.12" y2="584.285" gradientUnits="userSpaceOnUse">
<stop offset="0.34" stop-color="#787878"/>
<stop offset="1"/>
</linearGradient>
<linearGradient id="paint46_linear_67_1336" x1="980.12" y1="1102.48" x2="980.12" y2="584.273" gradientUnits="userSpaceOnUse">
<stop offset="0.34" stop-color="#787878"/>
<stop offset="1"/>
</linearGradient>
<linearGradient id="paint47_linear_67_1336" x1="980.12" y1="1102.47" x2="980.12" y2="584.271" gradientUnits="userSpaceOnUse">
<stop offset="0.34" stop-color="#787878"/>
<stop offset="1"/>
</linearGradient>
<linearGradient id="paint48_linear_67_1336" x1="980.12" y1="1102.47" x2="980.12" y2="584.268" gradientUnits="userSpaceOnUse">
<stop offset="0.34" stop-color="#787878"/>
<stop offset="1"/>
</linearGradient>
<linearGradient id="paint49_linear_67_1336" x1="30.0599" y1="1102.47" x2="30.0599" y2="584.28" gradientUnits="userSpaceOnUse">
<stop offset="0.34" stop-color="#787878"/>
<stop offset="1"/>
</linearGradient>
<linearGradient id="paint50_linear_67_1336" x1="165.78" y1="1102.47" x2="165.78" y2="584.28" gradientUnits="userSpaceOnUse">
<stop offset="0.34" stop-color="#787878"/>
<stop offset="1"/>
</linearGradient>
<linearGradient id="paint51_linear_67_1336" x1="301.5" y1="1102.47" x2="301.5" y2="584.28" gradientUnits="userSpaceOnUse">
<stop offset="0.34" stop-color="#787878"/>
<stop offset="1"/>
</linearGradient>
<linearGradient id="paint52_linear_67_1336" x1="437.23" y1="1102.47" x2="437.23" y2="584.28" gradientUnits="userSpaceOnUse">
<stop offset="0.34" stop-color="#787878"/>
<stop offset="1"/>
</linearGradient>
<linearGradient id="paint53_linear_67_1336" x1="572.95" y1="1102.47" x2="572.95" y2="584.28" gradientUnits="userSpaceOnUse">
<stop offset="0.34" stop-color="#787878"/>
<stop offset="1"/>
</linearGradient>
<linearGradient id="paint54_linear_67_1336" x1="708.67" y1="1102.47" x2="708.67" y2="584.28" gradientUnits="userSpaceOnUse">
<stop offset="0.34" stop-color="#787878"/>
<stop offset="1"/>
</linearGradient>
<linearGradient id="paint55_linear_67_1336" x1="844.4" y1="1102.47" x2="844.4" y2="584.28" gradientUnits="userSpaceOnUse">
<stop offset="0.34" stop-color="#787878"/>
<stop offset="1"/>
</linearGradient>
<linearGradient id="paint56_linear_67_1336" x1="-423.053" y1="1102.47" x2="-422.053" y2="584.28" gradientUnits="userSpaceOnUse">
<stop offset="0.34" stop-color="#787878"/>
<stop offset="1"/>
</linearGradient>
<linearGradient id="paint57_linear_67_1336" x1="1115.84" y1="1102.47" x2="1115.84" y2="584.28" gradientUnits="userSpaceOnUse">
<stop offset="0.34" stop-color="#787878"/>
<stop offset="1"/>
</linearGradient>
<linearGradient id="paint58_linear_67_1336" x1="1251.57" y1="1102.47" x2="1251.57" y2="584.28" gradientUnits="userSpaceOnUse">
<stop offset="0.34" stop-color="#787878"/>
<stop offset="1"/>
</linearGradient>
<linearGradient id="paint59_linear_67_1336" x1="1387.29" y1="1102.47" x2="1387.29" y2="584.28" gradientUnits="userSpaceOnUse">
<stop offset="0.34" stop-color="#787878"/>
<stop offset="1"/>
</linearGradient>
<linearGradient id="paint60_linear_67_1336" x1="1523.02" y1="1102.47" x2="1523.02" y2="584.28" gradientUnits="userSpaceOnUse">
<stop offset="0.34" stop-color="#787878"/>
<stop offset="1"/>
</linearGradient>
<linearGradient id="paint61_linear_67_1336" x1="1658.74" y1="1102.47" x2="1658.74" y2="584.28" gradientUnits="userSpaceOnUse">
<stop offset="0.34" stop-color="#787878"/>
<stop offset="1"/>
</linearGradient>
<linearGradient id="paint62_linear_67_1336" x1="1794.46" y1="1102.47" x2="1794.46" y2="584.28" gradientUnits="userSpaceOnUse">
<stop offset="0.34" stop-color="#787878"/>
<stop offset="1"/>
</linearGradient>
<linearGradient id="paint63_linear_67_1336" x1="1930.19" y1="1102.47" x2="1930.19" y2="584.28" gradientUnits="userSpaceOnUse">
<stop offset="0.34" stop-color="#787878"/>
<stop offset="1"/>
</linearGradient>
<linearGradient id="paint64_linear_67_1336" x1="-421.76" y1="303.78" x2="426.62" y2="303.78" gradientUnits="userSpaceOnUse">
<stop offset="0.34" stop-color="#787878"/>
<stop offset="1"/>
</linearGradient>
<linearGradient id="paint65_linear_67_1336" x1="-421.76" y1="-145.96" x2="426.62" y2="-145.96" gradientUnits="userSpaceOnUse">
<stop offset="0.34" stop-color="#787878"/>
<stop offset="1"/>
</linearGradient>
<linearGradient id="paint66_linear_67_1336" x1="-421.76" y1="-46.0201" x2="426.62" y2="-46.0201" gradientUnits="userSpaceOnUse">
<stop offset="0.34" stop-color="#787878"/>
<stop offset="1"/>
</linearGradient>
<linearGradient id="paint67_linear_67_1336" x1="-421.76" y1="53.9303" x2="426.63" y2="53.9303" gradientUnits="userSpaceOnUse">
<stop offset="0.34" stop-color="#787878"/>
<stop offset="1"/>
</linearGradient>
<linearGradient id="paint68_linear_67_1336" x1="-421.76" y1="153.871" x2="426.62" y2="153.871" gradientUnits="userSpaceOnUse">
<stop offset="0.34" stop-color="#787878"/>
<stop offset="1"/>
</linearGradient>
<linearGradient id="paint69_linear_67_1336" x1="-421.76" y1="253.81" x2="426.62" y2="253.81" gradientUnits="userSpaceOnUse">
<stop offset="0.34" stop-color="#787878"/>
<stop offset="1"/>
</linearGradient>
<linearGradient id="paint70_linear_67_1336" x1="-421.76" y1="353.75" x2="426.62" y2="353.75" gradientUnits="userSpaceOnUse">
<stop offset="0.34" stop-color="#787878"/>
<stop offset="1"/>
</linearGradient>
<linearGradient id="paint71_linear_67_1336" x1="-421.76" y1="453.7" x2="426.62" y2="453.7" gradientUnits="userSpaceOnUse">
<stop offset="0.34" stop-color="#787878"/>
<stop offset="1"/>
</linearGradient>
<linearGradient id="paint72_linear_67_1336" x1="-421.76" y1="553.64" x2="426.63" y2="553.64" gradientUnits="userSpaceOnUse">
<stop offset="0.34" stop-color="#787878"/>
<stop offset="1"/>
</linearGradient>
<linearGradient id="paint73_linear_67_1336" x1="-421.76" y1="653.58" x2="426.62" y2="653.58" gradientUnits="userSpaceOnUse">
<stop offset="0.34" stop-color="#787878"/>
<stop offset="1"/>
</linearGradient>
<linearGradient id="paint74_linear_67_1336" x1="-421.76" y1="753.53" x2="426.62" y2="753.53" gradientUnits="userSpaceOnUse">
<stop offset="0.34" stop-color="#787878"/>
<stop offset="1"/>
</linearGradient>
<linearGradient id="paint75_linear_67_1336" x1="-421.607" y1="303.78" x2="426.505" y2="303.78" gradientUnits="userSpaceOnUse">
<stop offset="0.34" stop-color="#787878"/>
<stop offset="1"/>
</linearGradient>
<linearGradient id="paint76_linear_67_1336" x1="-421.785" y1="303.78" x2="426.637" y2="303.78" gradientUnits="userSpaceOnUse">
<stop offset="0.34" stop-color="#787878"/>
<stop offset="1"/>
</linearGradient>
<linearGradient id="paint77_linear_67_1336" x1="-421.812" y1="303.78" x2="426.649" y2="303.78" gradientUnits="userSpaceOnUse">
<stop offset="0.34" stop-color="#787878"/>
<stop offset="1"/>
</linearGradient>
<linearGradient id="paint78_linear_67_1336" x1="-421.794" y1="303.78" x2="426.638" y2="303.78" gradientUnits="userSpaceOnUse">
<stop offset="0.34" stop-color="#787878"/>
<stop offset="1"/>
</linearGradient>
<linearGradient id="paint79_linear_67_1336" x1="-421.784" y1="303.78" x2="426.628" y2="303.78" gradientUnits="userSpaceOnUse">
<stop offset="0.34" stop-color="#787878"/>
<stop offset="1"/>
</linearGradient>
<linearGradient id="paint80_linear_67_1336" x1="-421.793" y1="303.78" x2="426.629" y2="303.78" gradientUnits="userSpaceOnUse">
<stop offset="0.34" stop-color="#787878"/>
<stop offset="1"/>
</linearGradient>
<linearGradient id="paint81_linear_67_1336" x1="-421.853" y1="303.78" x2="426.639" y2="303.78" gradientUnits="userSpaceOnUse">
<stop offset="0.34" stop-color="#787878"/>
<stop offset="1"/>
</linearGradient>
<linearGradient id="paint82_linear_67_1336" x1="-421.853" y1="303.781" x2="426.629" y2="303.781" gradientUnits="userSpaceOnUse">
<stop offset="0.34" stop-color="#787878"/>
<stop offset="1"/>
</linearGradient>
<linearGradient id="paint83_linear_67_1336" x1="-421.492" y1="303.78" x2="426.61" y2="303.78" gradientUnits="userSpaceOnUse">
<stop offset="0.34" stop-color="#787878"/>
<stop offset="1"/>
</linearGradient>
<linearGradient id="paint84_linear_67_1336" x1="-421.792" y1="303.78" x2="426.63" y2="303.78" gradientUnits="userSpaceOnUse">
<stop offset="0.34" stop-color="#787878"/>
<stop offset="1"/>
</linearGradient>
</defs>
</svg>
